<svg width="24" height="24" viewBox="0 0 24 24" fill="none" xmlns="http://www.w3.org/2000/svg">
<path d="M18.217 8.974C17.767 8.351 16.735 7.07 15.147 5.166C14.458 4.341 13.867 3.64 13.577 3.296L13.169 2.816L12.996 2.611L12.902 2.501L12.884 2.474L12.876 2.47L12.476 2L11.967 2.407C10.6668 3.44899 9.61787 4.77032 8.898 6.273C8.47948 7.10778 8.18633 7.9997 8.028 8.92C7.988 9.122 7.95467 9.327 7.928 9.535C7.73604 9.51883 7.54361 9.50882 7.351 9.505C6.7093 9.48244 6.06799 9.55969 5.45 9.734L5.185 9.808L5.049 10.046C4.40854 11.1702 4.0503 12.433 4.005 13.726C3.94824 15.3677 4.39823 16.9871 5.29385 18.3642C6.18947 19.7412 7.48729 20.8092 9.011 21.423L9.208 21.502L9.268 21.522H9.27C10.0575 21.807 10.8849 21.9667 11.722 21.995C11.8173 21.9983 11.9127 22 12.008 22C13.0643 22.0017 14.1103 21.7916 15.084 21.382L15.091 21.385L15.352 21.265C16.6967 20.6457 17.8429 19.6651 18.6627 18.4324C19.4825 17.1997 19.9438 15.7635 19.995 14.284C20.0191 12.364 19.3924 10.4924 18.217 8.974ZM9.837 19.82L9.645 19.746L9.594 19.726C8.40558 19.235 7.39552 18.3927 6.69906 17.3118C6.00259 16.2309 5.65297 14.9631 5.697 13.678C5.72626 12.748 5.96448 11.8364 6.394 11.011C6.6437 10.9556 6.89758 10.9212 7.153 10.908L7.218 10.906C7.34398 10.903 7.47002 10.903 7.596 10.906C7.704 10.911 7.811 10.927 7.918 10.94C8.00955 12.3159 8.31942 13.6685 8.836 14.947C9.38692 16.3167 10.2314 17.5489 11.31 18.557C10.886 19.0504 10.3893 19.4763 9.837 19.82ZM10.188 14.334C9.78587 13.3338 9.52763 12.2817 9.421 11.209C9.75431 11.3257 10.0731 11.4804 10.371 11.67C11.3602 12.3503 12.0538 13.3813 12.311 14.554C12.3653 14.7675 12.4053 14.9843 12.431 15.203C12.503 15.8908 12.4041 16.5857 12.143 17.226C11.2937 16.4115 10.6273 15.4257 10.188 14.334ZM11.929 20.192C12.1239 19.9951 12.3085 19.7881 12.482 19.572C12.715 19.749 12.967 19.904 13.212 20.067C12.7897 20.1524 12.3598 20.1943 11.929 20.192ZM17.361 17.222C16.8104 18.1055 16.0507 18.8397 15.149 19.36C14.4994 19.0317 13.8801 18.6469 13.298 18.21C13.8696 16.9556 13.9791 15.5394 13.607 14.212C13.2694 12.7164 12.3738 11.4059 11.103 10.548C10.5838 10.2181 10.0178 9.9686 9.424 9.808C9.44016 9.64204 9.4615 9.47663 9.488 9.312C9.59331 8.76611 9.74898 8.23116 9.953 7.714C10.031 7.51533 10.1153 7.32067 10.206 7.13L10.21 7.123C10.35 6.841 10.506 6.556 10.691 6.251L10.764 6.131H10.762C11.1921 5.45906 11.7077 4.84592 12.296 4.307L12.523 4.576C13.053 5.204 13.553 5.798 14.006 6.341C15.026 7.564 16.348 9.169 16.858 9.877C17.8055 11.087 18.3152 12.5822 18.304 14.119C18.266 15.2182 17.9409 16.2874 17.361 17.222Z" fill="#FF9100"/>
</svg>
